<svg width="68" height="68" viewBox="0 0 68 68" fill="none" xmlns="http://www.w3.org/2000/svg">
<ellipse cx="34.0633" cy="34.3954" rx="33.1899" ry="33.5814" fill="white"/>
<path d="M18.9879 49.6465H48.8665" stroke="#413F42" stroke-width="4" stroke-miterlimit="10" stroke-linecap="round" stroke-linejoin="round"/>
<path d="M20.4071 49.6465L20.4818 31.2479C20.4818 30.315 20.915 29.4281 21.6321 28.8469L32.0896 20.5117C33.1653 19.6553 34.6741 19.6553 35.7647 20.5117L46.2222 28.8316C46.9543 29.4128 47.3726 30.2997 47.3726 31.2479V49.6465" stroke="#413F42" stroke-width="4" stroke-miterlimit="10" stroke-linejoin="round"/>
<path d="M35.4211 41.9995H32.4332C31.1933 41.9995 30.1923 43.0242 30.1923 44.2936V49.6464H37.662V44.2936C37.662 43.0242 36.661 41.9995 35.4211 41.9995Z" stroke="#413F42" stroke-width="4" stroke-miterlimit="10" stroke-linejoin="round"/>
<path d="M30.1924 37.0291H27.2045C26.3828 37.0291 25.7106 36.3409 25.7106 35.4997V33.2057C25.7106 32.3645 26.3828 31.6763 27.2045 31.6763H30.1924C31.014 31.6763 31.6863 32.3645 31.6863 33.2057V35.4997C31.6863 36.3409 31.014 37.0291 30.1924 37.0291Z" stroke="#413F42" stroke-width="4" stroke-miterlimit="10" stroke-linejoin="round"/>
<path d="M40.6499 37.0291H37.662C36.8404 37.0291 36.1681 36.3409 36.1681 35.4997V33.2057C36.1681 32.3645 36.8404 31.6763 37.662 31.6763H40.6499C41.4715 31.6763 42.1438 32.3645 42.1438 33.2057V35.4997C42.1438 36.3409 41.4715 37.0291 40.6499 37.0291Z" stroke="#413F42" stroke-width="4" stroke-miterlimit="10" stroke-linejoin="round"/>
<path d="M44.3847 26.7056L44.3399 22.1174H37.7666" stroke="#413F42" stroke-width="4" stroke-miterlimit="10" stroke-linecap="round" stroke-linejoin="round"/>
</svg>
